#tb 0: 1/22050
0,          0,          0,     1462,     5848, 0xea04292b
0,       1462,       1462,     1472,     5888, 0x0e59e942
0,       2934,       2934,     1472,     5888, 0x56d480f6
0,       4406,       4406,     1472,     5888, 0xcb560b22
0,       5878,       5878,     1472,     5888, 0xca26865b
0,       7350,       7350,     1472,     5888, 0xa434392f
0,       8822,       8822,     1472,     5888, 0xa0615fe4
0,      10294,      10294,     1472,     5888, 0x85b241cd
0,      11766,      11766,     1472,     5888, 0x2c417a43
0,      13238,      13238,     1472,     5888, 0x2d5ed665
0,      14710,      14710,     1472,     5888, 0x37267a2d
0,      16182,      16182,     1472,     5888, 0x1f803c67
0,      17654,      17654,     1472,     5888, 0xfb7940ef
0,      19126,      19126,     1472,     5888, 0x1a5371e8
0,      20598,      20598,     1472,     5888, 0x37e29b21
0,      22070,      22070,     1462,     5848, 0x70065769
0,      23532,      23532,     1472,     5888, 0xaf624f3d
0,      25004,      25004,     1472,     5888, 0x8f5e5b57
0,      26476,      26476,     1472,     5888, 0x93545968
0,      27948,      27948,     1472,     5888, 0x915f268f
0,      29420,      29420,     1472,     5888, 0x9cd48ac4
0,      30892,      30892,     1472,     5888, 0x812c8e13
0,      32364,      32364,     1472,     5888, 0xe794a2a7
0,      33836,      33836,     1472,     5888, 0x4a056e4b
0,      35308,      35308,     1472,     5888, 0xa3589992
0,      36780,      36780,     1472,     5888, 0x19ea7ec5
0,      38252,      38252,     1472,     5888, 0x422d5097
0,      39724,      39724,     1472,     5888, 0xc9fd963f
0,      41196,      41196,     1472,     5888, 0xc556a5ea
0,      42668,      42668,     1472,     5888, 0x51557e0f
0,      44140,      44140,     1462,     5848, 0x4903ad21
0,      45602,      45602,     1472,     5888, 0xb1c85e85
0,      47074,      47074,     1472,     5888, 0x68963d65
0,      48546,      48546,     1472,     5888, 0x62a3124e
0,      50018,      50018,     1472,     5888, 0x4ff1878f
0,      51490,      51490,     1472,     5888, 0x8b09ac18
0,      52962,      52962,     1472,     5888, 0x67d85338
0,      54434,      54434,     1472,     5888, 0x82eca0a6
0,      55906,      55906,     1472,     5888, 0x81a17eb8
0,      57378,      57378,     1472,     5888, 0x7108478c
0,      58850,      58850,     1472,     5888, 0xbfc18b09
0,      60322,      60322,     1472,     5888, 0xad93711f
0,      61794,      61794,     1472,     5888, 0xf8d25e39
0,      63266,      63266,     1472,     5888, 0x41edd04e
0,      64738,      64738,     1472,     5888, 0xa6557ee2
0,      66210,      66210,     1462,     5848, 0xc14d5456
0,      67672,      67672,     1472,     5888, 0x20a7821f
0,      69144,      69144,     1472,     5888, 0x9f1a8f9d
0,      70616,      70616,     1472,     5888, 0x2f3c6cc8
0,      72088,      72088,     1472,     5888, 0x757c894a
0,      73560,      73560,     1472,     5888, 0x483e98bb
0,      75032,      75032,     1472,     5888, 0x84289c75
0,      76504,      76504,     1472,     5888, 0xf79d5a91
0,      77976,      77976,     1472,     5888, 0x395b5228
0,      79448,      79448,     1472,     5888, 0x9c937a14
0,      80920,      80920,     1472,     5888, 0x40c169cf
0,      82392,      82392,     1472,     5888, 0x3e7f99b0
0,      83864,      83864,     1472,     5888, 0xd4de993e
0,      85336,      85336,     1472,     5888, 0xae856b09
0,      86808,      86808,     1472,     5888, 0xa2369c95
0,      88280,      88280,     1462,     5848, 0x992d516b
0,      89742,      89742,     1472,     5888, 0xcd785ba9
0,      91214,      91214,     1472,     5888, 0x55ea3bce
0,      92686,      92686,     1472,     5888, 0xf06d4bbf
0,      94158,      94158,     1472,     5888, 0x2a9d4c1a
0,      95630,      95630,     1472,     5888, 0xd5e348a3
0,      97102,      97102,     1472,     5888, 0x6431a24c
0,      98574,      98574,     1472,     5888, 0x41f9908c
0,     100046,     100046,     1472,     5888, 0x0ed99656
0,     101518,     101518,     1472,     5888, 0x635a6392
0,     102990,     102990,     1472,     5888, 0x690c750c
0,     104462,     104462,     1472,     5888, 0xf9d97b23
0,     105934,     105934,     1472,     5888, 0x75e1606b
0,     107406,     107406,     1472,     5888, 0x1bcb43b0
0,     108878,     108878,     1472,     5888, 0x48c295cb
0,     110350,     110350,     1462,     5848, 0xe47f7b5d
0,     111812,     111812,     1472,     5888, 0x20be7f3e
0,     113284,     113284,     1472,     5888, 0x8c2428c4
0,     114756,     114756,     1472,     5888, 0x851379af
0,     116228,     116228,     1472,     5888, 0x5916647d
0,     117700,     117700,     1472,     5888, 0xef9c6281
0,     119172,     119172,     1472,     5888, 0x49660d32
0,     120644,     120644,     1472,     5888, 0x62cf36a1
0,     122116,     122116,     1472,     5888, 0x56dff39c
0,     123588,     123588,     1472,     5888, 0x4e6b5b02
0,     125060,     125060,     1472,     5888, 0xb8697067
0,     126532,     126532,     1472,     5888, 0xcb4e2706
0,     128004,     128004,     1472,     5888, 0x6eaa9669
0,     129476,     129476,     1472,     5888, 0xfd9d7dba
0,     130948,     130948,     1472,     5888, 0xfe137923
0,     132420,     132420,     1462,     5848, 0x1931296f
0,     133882,     133882,     1472,     5888, 0xa09a7c03
0,     135354,     135354,     1472,     5888, 0xded9802d
0,     136826,     136826,     1472,     5888, 0x9f6723b7
0,     138298,     138298,     1472,     5888, 0x3ad02476
0,     139770,     139770,     1472,     5888, 0xa1647e32
0,     141242,     141242,     1472,     5888, 0x728672da
0,     142714,     142714,     1472,     5888, 0x9c098090
0,     144186,     144186,     1472,     5888, 0x32a65ea3
0,     145658,     145658,     1472,     5888, 0xdde141d5
0,     147130,     147130,     1472,     5888, 0x816c5fb4
0,     148602,     148602,     1472,     5888, 0x75e17581
0,     150074,     150074,     1472,     5888, 0x59035469
0,     151546,     151546,     1472,     5888, 0x20d340cd
0,     153018,     153018,     1472,     5888, 0xa89a8790
0,     154490,     154490,     1462,     5848, 0x12b74c34
0,     155952,     155952,     1472,     5888, 0xcd3b3bef
0,     157424,     157424,     1472,     5888, 0xe5c44bf3
0,     158896,     158896,     1472,     5888, 0xb82c4fa4
0,     160368,     160368,     1472,     5888, 0x05b2443a
0,     161840,     161840,     1472,     5888, 0x78028172
0,     163312,     163312,     1472,     5888, 0xdfcac19a
0,     164784,     164784,     1472,     5888, 0x0761a0b9
0,     166256,     166256,     1472,     5888, 0x77d88607
0,     167728,     167728,     1472,     5888, 0xdd7f4d77
0,     169200,     169200,     1472,     5888, 0x366bf58a
0,     170672,     170672,     1472,     5888, 0x9a3d59b5
0,     172144,     172144,     1472,     5888, 0x16cb777f
0,     173616,     173616,     1472,     5888, 0x1d4afe64
0,     175088,     175088,     1472,     5888, 0xc0fe1e73
0,     176560,     176560,     1462,     5848, 0xcceb69c8
0,     178022,     178022,     1472,     5888, 0x89449643
0,     179494,     179494,     1472,     5888, 0x5fe595b7
0,     180966,     180966,     1472,     5888, 0x400a8c77
